HIERARCHY
ROOT root
{
	OFFSET 0.000000 0.000000 0.000000
	CHANNELS 6 Xposition Yposition Zposition Zrotation Yrotation Xrotation
	JOINT lhip
	{
		OFFSET 0.058581 -0.082280 -0.017664
		CHANNELS 3 Zrotation Yrotation Xrotation
		JOINT lknee
		{
			OFFSET 0.043451 -0.386469 0.008037
			CHANNELS 3 Zrotation Yrotation Xrotation
			JOINT lankle
			{
				OFFSET -0.014790 -0.426874 -0.037428
				CHANNELS 3 Zrotation Yrotation Xrotation
				JOINT ltoe
				{
					OFFSET 0.041054 -0.060286 0.122042
					CHANNELS 3 Zrotation Yrotation Xrotation
					End Site
					{
						OFFSET 0.000000 0.000000 0.000000
					}
				}
			}
		}
	}
	JOINT rhip
	{
		OFFSET -0.060310 -0.090513 -0.013543
		CHANNELS 3 Zrotation Yrotation Xrotation
		JOINT rknee
		{
			OFFSET -0.043257 -0.383688 -0.004843
			CHANNELS 3 Zrotation Yrotation Xrotation
			JOINT rankle
			{
				OFFSET 0.019056 -0.420046 -0.034562
				CHANNELS 3 Zrotation Yrotation Xrotation
				JOINT rtoe
				{
					OFFSET -0.034840 -0.062106 0.130323
					CHANNELS 3 Zrotation Yrotation Xrotation
					End Site
					{
						OFFSET 0.000000 0.000000 0.000000
					}
				}
			}
		}
	}
	JOINT lowerback
	{
		OFFSET 0.004439 0.124404 -0.038385
		CHANNELS 3 Zrotation Yrotation Xrotation
		JOINT upperback
		{
			OFFSET 0.004488 0.137956 0.026820
			CHANNELS 3 Zrotation Yrotation Xrotation
			JOINT chest
			{
				OFFSET -0.002265 0.056032 0.002855
				CHANNELS 3 Zrotation Yrotation Xrotation
				JOINT lowerneck
				{
					OFFSET -0.013390 0.211636 -0.033468
					CHANNELS 3 Zrotation Yrotation Xrotation
					JOINT upperneck
					{
						OFFSET 0.010113 0.088937 0.050410
						CHANNELS 3 Zrotation Yrotation Xrotation
						End Site
						{
							OFFSET 0.000000 0.000000 0.000000
						}
					}
				}
				JOINT lclavicle
				{
					OFFSET 0.071702 0.114000 -0.018898
					CHANNELS 3 Zrotation Yrotation Xrotation
					JOINT lshoulder
					{
						OFFSET 0.122921 0.045205 -0.019046
						CHANNELS 3 Zrotation Yrotation Xrotation
						JOINT lelbow
						{
							OFFSET 0.255332 -0.015649 -0.022946
							CHANNELS 3 Zrotation Yrotation Xrotation
							JOINT lwrist
							{
								OFFSET 0.265709 0.012698 -0.007375
								CHANNELS 3 Zrotation Yrotation Xrotation
								End Site
								{
									OFFSET 0.000000 0.000000 0.000000
								}
							}
						}
					}
				}
				JOINT rclavicle
				{
					OFFSET -0.082954 0.112472 -0.023707
					CHANNELS 3 Zrotation Yrotation Xrotation
					JOINT rshoulder
					{
						OFFSET -0.113228 0.046853 -0.008472
						CHANNELS 3 Zrotation Yrotation Xrotation
						JOINT relbow
						{
							OFFSET -0.260127 -0.014369 -0.031269
							CHANNELS 3 Zrotation Yrotation Xrotation
							JOINT rwrist
							{
								OFFSET -0.269108 0.006794 -0.006027
								CHANNELS 3 Zrotation Yrotation Xrotation
								End Site
								{
									OFFSET 0.000000 0.000000 0.000000
								}
							}
						}
					}
				}
			}
		}
	}
}
MOTION
Frames: 6
Frame Time: 0.033333
-1.650019 0.250785 0.992400 91.083921 0.376080 87.370536 1.758888 3.090085 1.947225 -1.182200 -6.302395 6.219879 5.268914 12.086139 -14.204127 0.000000 -0.000000 0.000000 0.240775 -2.558767 -5.014610 1.543614 -0.570981 15.060373 1.813740 -6.227813 -14.713396 0.000000 -0.000000 0.000000 0.745646 -0.903638 8.503037 0.958044 -2.044488 -2.228833 0.465833 -1.598282 0.367869 3.072703 -0.615395 -7.769790 1.047349 -5.380343 4.326246 -24.389717 4.409345 0.212990 -58.855730 -5.736737 9.270884 6.037536 -26.909156 15.063445 -1.686422 0.188814 2.537834 22.602807 -1.170531 -1.120233 59.544232 0.365462 13.911926 -12.398124 25.248973 3.693656 -1.651432 0.710024 -1.093730 
-1.647912 0.247800 0.991787 90.600987 0.384760 87.340700 1.711436 3.144591 2.094213 -1.079056 -6.121866 6.270165 5.920995 12.400618 -14.273915 0.000000 -0.000000 0.000000 0.334063 -2.256104 -4.780410 1.642560 -0.378600 14.863769 2.198628 -6.212679 -14.816095 0.000000 -0.000000 0.000000 0.472628 -0.911127 7.950946 1.077485 -2.281858 -1.357118 0.671000 -1.468228 1.433763 2.877574 -0.589703 -8.650406 1.854112 -4.934743 1.118983 -23.589407 4.418999 -0.664912 -60.161163 -5.981167 9.561114 5.895260 -27.079646 16.207845 -1.503756 0.638993 2.026446 21.693770 -1.482575 -2.101884 60.669299 0.785043 13.986829 -12.311565 25.912229 4.788467 -1.743700 0.318078 -1.563867 
-1.646002 0.246388 0.991841 90.162133 0.469354 87.413176 1.824592 3.202346 2.217033 -1.023493 -5.916724 6.224197 5.921949 12.487149 -14.368392 0.000000 -0.000000 0.000000 0.526266 -2.053728 -4.717341 1.659911 -0.185885 14.686671 2.209778 -6.198534 -14.799565 0.000000 -0.000000 0.000000 0.427589 -0.993589 7.573263 1.177772 -2.310157 -1.358260 0.724801 -1.548280 1.487884 2.979714 -0.423657 -8.482718 1.680114 -4.917685 1.833031 -23.578265 4.501827 -0.471715 -60.348955 -5.875672 9.675025 5.855386 -27.058425 16.435058 -1.120956 0.476214 2.405437 21.759373 -1.682067 -1.929290 60.659679 0.783062 14.047387 -12.329785 26.326060 4.830468 -1.999302 0.502493 -1.595139 
-1.643380 0.245422 0.991827 89.735272 0.510936 87.478812 2.023943 3.445566 2.530766 -1.100177 -5.905857 5.937963 5.852371 12.432356 -14.338282 0.000000 -0.000000 0.000000 0.618593 -2.076085 -4.510844 1.691744 0.040530 14.387984 2.203577 -6.077296 -14.713374 0.000000 -0.000000 0.000000 0.400086 -1.070776 7.256728 1.340048 -2.411754 -1.384572 0.916249 -1.944620 1.241843 2.774689 -0.176457 -7.841823 1.365148 -4.041286 2.112552 -23.978682 4.873513 -0.450719 -60.156243 -5.411542 9.492687 5.682933 -27.315706 16.714762 -0.693323 0.351584 2.525755 21.500306 -1.857366 -1.445331 60.791431 0.860785 14.004548 -12.385260 26.888265 4.937427 -2.149199 0.632141 -1.588140 
-1.642295 0.244856 0.991728 89.492977 0.507489 87.481257 2.126522 3.615984 2.701534 -1.160590 -5.853951 5.787843 5.873070 12.376634 -14.290974 0.000000 -0.000000 0.000000 0.661377 -2.024965 -4.416509 1.659197 0.087614 14.297741 2.139561 -6.012064 -14.654988 0.000000 -0.000000 0.000000 0.270482 -1.088101 7.119354 1.457219 -2.467800 -1.302917 1.088062 -2.143140 1.107923 2.654269 -0.071985 -7.375509 1.205943 -3.431419 1.913360 -24.197460 4.997410 -0.419422 -60.012649 -5.233000 9.324121 5.663847 -27.574191 16.713660 -0.548006 0.394870 2.439425 21.332136 -1.868441 -1.165824 60.901489 1.018886 13.898251 -12.467622 27.065480 4.883805 -2.217095 0.635314 -1.655308 
-1.641168 0.244822 0.991312 89.428507 0.590633 87.629632 2.202724 3.539646 2.723855 -1.140988 -5.773948 5.593458 5.719416 12.453439 -14.253961 0.000000 -0.000000 0.000000 0.738661 -1.902303 -4.442110 1.670222 0.073440 14.146353 2.301657 -6.110423 -14.622259 0.000000 -0.000000 0.000000 0.210755 -1.177621 6.591194 1.480627 -2.486061 -1.051622 0.894895 -1.851644 1.521506 3.014847 -0.345048 -7.589915 1.467621 -4.799514 2.677059 -23.744280 4.863122 -0.299851 -60.412314 -5.949040 9.635570 5.945829 -27.565785 16.252130 -0.457119 0.365829 2.409727 21.941563 -2.308094 -1.865815 60.638069 0.799165 14.076658 -12.570526 27.310156 4.725942 -2.224379 0.618054 -1.771014 
